<svg width="191" height="72" viewBox="0 0 191 72" fill="none" xmlns="http://www.w3.org/2000/svg"><g clip-path="url(#cilium-light-1_svg__a)"><path d="m26.968 45.725-5.454-9.648 5.454-9.648h10.859l5.454 9.648-5.454 9.648H26.969Z" fill="#E83030" stroke="#141A1F" stroke-width="2.759"/><path d="m26.968 69.07-5.454-9.648 5.454-9.648h10.859l5.454 9.648-5.454 9.648H26.969Z" fill="#6B91C7" stroke="#141A1F" stroke-width="2.759"/><path d="m26.968 22.38-5.454-9.647 5.454-9.648h10.859l5.454 9.648-5.454 9.647H26.969Z" fill="#F9C31F" stroke="#141A1F" stroke-width="2.759"/><path d="m47.136 57.397-5.454-9.648 5.454-9.648h10.859l5.454 9.648-5.454 9.648H47.137Z" fill="#795AA5" stroke="#141A1F" stroke-width="2.759"/><path d="m47.136 34.052-5.454-9.648 5.454-9.648h10.859l5.454 9.648-5.454 9.648H47.137Z" fill="#F17423" stroke="#141A1F" stroke-width="2.759"/><path d="m6.808 57.397-5.454-9.648 5.454-9.648h10.859l5.454 9.648-5.454 9.648H6.808Z" fill="#97C639" stroke="#141A1F" stroke-width="2.759"/><path d="m6.808 34.052-5.454-9.648 5.454-9.648h10.859l5.454 9.648-5.454 9.648H6.808Z" fill="#C9DB70" stroke="#141A1F" stroke-width="2.759"/><path d="M91.208 24.665c1.005.007 2.007.122 2.989.344.93.202 1.716.565 2.48.95v2.972a25.682 25.682 0 0 0-2.593-.806c-.873-.202-1.661-.345-2.536-.345s-1.717.143-2.594.403c-.876.26-1.605.748-2.338 1.437-.676.69-1.213 1.554-1.662 2.646-.394 1.093-.59 2.445-.59 4.084 0 1.13.14 2.26.48 3.277a7.862 7.862 0 0 0 1.408 2.588c.62.748 1.409 1.294 2.256 1.695.93.403 2 .603 3.211.603.874 0 1.717-.056 2.677-.258.88-.216 1.745-.485 2.593-.806v2.99c-.253.144-.59.346-.985.49-.395.145-.874.259-1.409.404-.48.143-.986.201-1.606.258l-1.66.143c-1.411.02-2.814-.214-4.145-.69a11.155 11.155 0 0 1-3.41-2.041 9.948 9.948 0 0 1-2.256-3.538c-.554-1.437-.874-3.05-.874-5.032 0-1.437.14-2.731.48-3.88.253-1.13.676-2.185 1.213-3.052.537-.866 1.108-1.638 1.803-2.26a10.397 10.397 0 0 1 2.197-1.495 11.52 11.52 0 0 1 2.396-.891l2.48-.23-.005.04Zm11.189-4.487v-4.027h3.508v4.027h-3.508Zm.056 27.006V25.269h3.507v21.932l-3.507-.017Zm10.739.019v-33.41h3.507v33.408l-3.507.002Zm10.663-27.025v-4.027h3.507v4.027h-3.507Zm.055 27.006V25.269h3.508v21.932l-3.508-.017Zm19.101.565a12.961 12.961 0 0 1-2.988-.345 10.31 10.31 0 0 1-2.339-1.006c-.676-.49-1.268-.949-1.717-1.638a6.367 6.367 0 0 1-1.107-2.042c-.198-.565-.338-1.13-.48-1.84l-.14-2.185V25.292h3.507v13.4c0 1.238.14 2.261.48 3.052.337.95.93 1.639 1.716 2.185.787.546 1.861.806 3.072.806 1.325 0 2.396-.258 3.211-.89.79-.603 1.409-1.353 1.717-2.387.253-.748.395-1.695.395-2.788V25.26h3.507v13.46c0 .682-.046 1.365-.14 2.041-.055.6-.188 1.19-.395 1.754-.253.747-.676 1.437-1.108 2.1-.48.602-1.07 1.13-1.716 1.638-.676.49-1.466.806-2.396 1.093a11.574 11.574 0 0 1-3.072.403h-.007Zm32.92-.565h-3.507v-14.11a8.782 8.782 0 0 0-.338-2.444c-.197-.69-.48-1.238-.873-1.639a3.957 3.957 0 0 0-1.408-.95c-.554-.2-1.108-.257-1.804-.257a6.107 6.107 0 0 0-3.411 1.006 10.381 10.381 0 0 0-2.731 2.847v15.588h-3.495V25.27h2.732l.676 3.052h.055l1.268-1.438c.48-.403.986-.806 1.523-1.13a6.005 6.005 0 0 1 1.861-.747c.675-.202 1.408-.259 2.215-.259 1.606 0 2.931.404 4.001 1.13 1.071.807 1.861 1.84 2.481 3.193h.056c.93-1.352 2.058-2.445 3.267-3.192 1.209-.748 2.676-1.13 4.256-1.13.733 0 1.523.143 2.396.344.873.202 1.606.603 2.339 1.13.732.528 1.268 1.353 1.716 2.387.48 1.005.733 2.301.733 3.94v14.697h-3.382v-14.12a8.78 8.78 0 0 0-.337-2.445c-.198-.69-.48-1.238-.873-1.64a3.969 3.969 0 0 0-1.409-.948c-.554-.202-1.107-.259-1.803-.259a6.105 6.105 0 0 0-3.411 1.006c-.986.69-1.946 1.639-2.791 2.848l-.002 15.496Z" fill="#141A1F"/></g><defs><clipPath id="cilium-light-1_svg__a"><path fill="#fff" d="M0 0h191v72H0z"/></clipPath></defs></svg>